<svg width="167" height="30" viewBox="0 0 167 30" fill="none" xmlns="http://www.w3.org/2000/svg">
<path d="M13.7523 13.2281C14.898 13.3045 16.0056 13.5909 16.9985 14.0683C18.6407 9.90551 20.092 5.7045 22.1925 4.11957L23.5101 4.71153C22.3453 10.7839 21.4096 16.7799 21.4096 21.1337C21.4096 25.1628 22.2116 27.798 24.3503 27.798C25.4005 27.798 26.088 27.1297 26.5272 26.0221L28.1503 26.595C27.4438 28.3709 26.2407 29.2875 24.5985 29.2875C20.8367 29.2875 19.5 26.1558 19.5 21.2291C19.5 20.7518 19.5191 20.2553 19.5382 19.7588C19.4809 18.002 18.7744 16.7226 17.7623 15.8633C15.8528 20.8663 13.294 25.5256 8.08092 25.5256C3.36433 25.5256 1.13015 21.993 1.13015 18.2884C1.13015 14.2593 3.78443 10.0583 8.78745 10.0583C11.5372 10.0583 13.1412 11.4522 13.7523 13.2281ZM5.82765 18.0211C6.4578 15.2904 9.13117 13.6482 12.0337 13.3045C11.5563 11.9869 10.4488 10.9749 8.69197 10.9749C4.96835 10.9749 2.86784 14.8322 2.86784 18.403C2.86784 21.592 4.51006 24.5709 8.1573 24.5709C12.2437 24.5709 14.5925 19.9879 16.5784 15.0995C15.7955 14.7367 14.9171 14.5457 14.0196 14.4884C14.0387 14.6603 14.0387 14.8131 14.0387 14.9849C14.0387 17.2191 12.7211 19.5487 10.3342 20.2935L9.68494 18.7467C11.4035 18.2121 12.2819 16.5126 12.2819 14.8703C12.2819 14.7749 12.2819 14.6985 12.2819 14.603C10.0287 14.9849 7.98544 16.3598 7.48896 18.5367L5.82765 18.0211ZM21.6387 6.01003H21.6196C20.302 8.16782 19.3473 11.4904 18.1442 14.8131C18.8317 15.3477 19.3855 16.0352 19.7674 16.8563C20.1111 13.61 20.7985 9.92461 21.6387 6.01003ZM26.5907 18.8804L26.9726 17.3719C28.0229 17.5819 29.0731 17.6965 30.0852 17.7347C30.0852 17.6583 30.0852 17.5628 30.0852 17.4864C30.0852 13.6864 32.243 9.9628 36.4058 9.9628C39.5757 9.9628 41.046 12.3115 41.2561 15.004C42.0772 14.4884 42.841 13.9156 43.5093 13.3045C43.4712 12.5789 43.4521 11.9105 43.4521 11.2995C43.4521 5.97184 44.6551 4.08138 46.3546 4.08138C47.5767 4.08138 48.0541 5.09344 48.0541 6.1246C48.0541 8.18691 47.0993 10.4975 45.3807 12.598L45.438 13.9156C45.438 14.1638 45.4571 14.412 45.4571 14.6603C45.4571 20.3317 42.6882 25.4302 37.2078 25.4302C33.1023 25.4302 30.8299 22.5085 30.238 19.205C29.054 19.205 27.851 19.0904 26.5907 18.8804ZM38.1817 22.1839L37.2269 20.6754C38.6591 19.8352 39.5566 18.4412 39.9194 16.9327C37.6279 18.1357 34.9355 18.9568 31.9184 19.1668C32.453 21.9739 34.2862 24.4372 37.6088 24.4372C41.3516 24.4372 43.5857 20.5608 43.5857 15.1759C43.5857 14.9467 43.5666 14.6985 43.5666 14.4502C42.8601 15.0613 42.0963 15.6533 41.2561 16.1879C41.1224 18.6703 39.9958 21.1719 38.1817 22.1839ZM40.1103 15.6342C40.1103 15.5196 40.1103 15.405 40.1103 15.2713C40.1103 12.9417 38.85 10.803 36.4058 10.803C33.3887 10.803 31.7465 14.0492 31.7465 17.3719C31.7465 17.4864 31.7656 17.6201 31.7656 17.7538C34.8973 17.6583 37.7425 16.8754 40.1103 15.6342ZM47.0802 6.1055C47.0802 5.58993 46.8511 5.15073 46.3928 5.15073C45.438 5.15073 45.1898 6.16279 45.1898 8.07234C45.1898 8.95073 45.2279 10.0201 45.3043 11.2804C46.431 9.67636 47.0802 7.90048 47.0802 6.1055ZM50.9488 16.6653L49.7267 16.0161C50.1086 15.3668 50.3569 14.5266 50.3569 13.9538C50.3569 13.5528 50.2423 13.2854 49.975 13.2854C48.982 13.2854 48.1227 15.5578 48.1227 17.3719C48.1227 18.5749 48.5046 19.5678 49.4785 19.5678C50.3951 19.5678 51.4262 18.5367 52.2664 16.4362C52.381 16.4362 52.8011 16.5889 52.8011 16.7035C52.2282 18.2312 50.7579 21.191 48.7338 21.191C47.2443 21.191 46.5951 19.6633 46.5951 17.8492C46.5951 15.2523 47.9317 12.1015 50.0513 12.1015C51.1398 12.1015 51.579 12.9799 51.579 14.0874C51.579 14.9085 51.3307 15.8442 50.9488 16.6653ZM54.6155 19.2432C54.6155 19.5296 54.73 19.6442 54.921 19.6442C55.3411 19.6442 56.0094 18.6322 56.8496 16.4362C56.9451 16.4362 57.3843 16.5698 57.3843 16.6844V16.7035C56.5441 18.8804 55.8758 21.0955 54.3099 21.0955C53.4125 21.0955 53.0687 20.5226 53.0687 19.6633C53.0687 18.4221 53.9471 17.0663 53.9471 16.0925C53.9471 15.5196 53.7753 15.0804 53.5652 14.6794L52.8014 16.7035C52.8014 16.7035 52.2667 16.608 52.2667 16.4553V16.4362C52.6104 15.5196 52.8587 14.5648 53.0496 13.6482C52.8587 13.2281 52.7059 12.7125 52.7059 12.0442C52.7059 11.4332 52.8396 10.6693 53.1451 9.67636L54.5773 10.0965C54.5009 11.3568 54.3481 12.2734 54.0426 13.2663C54.6728 13.9156 55.4939 14.6794 55.4939 15.7678C55.4939 16.9899 54.6155 18.5749 54.6155 19.2432ZM57.7516 12.2924H59.3747C58.7064 15.2713 58.1526 17.4864 58.1526 19.0523C58.1526 19.606 58.3627 19.7015 58.5345 19.7015C59.031 19.7015 59.6612 18.6322 60.5014 16.4362C60.5968 16.4362 61.036 16.5698 61.036 16.6844V16.7035C60.1958 18.8804 59.5275 21.0955 57.9617 21.0955C56.9305 21.0955 56.5868 20.1407 56.5868 18.8231C56.5868 16.7035 57.427 13.6673 57.7516 12.2924ZM58.8782 11.1849C58.2672 11.1849 57.9808 10.7266 57.9808 10.211C57.9808 9.5236 58.4772 8.70249 59.3174 8.70249C59.9476 8.70249 60.2149 9.16079 60.2149 9.69546C60.2149 10.3829 59.7184 11.1849 58.8782 11.1849ZM62.5141 12.197L62.4569 12.5216L62.3805 12.8844C62.7815 12.4834 63.278 12.2352 63.8126 12.2352C65.1875 12.2352 65.6267 13.5909 65.6267 15.5578C65.6267 16.4171 65.4167 17.3528 65.1111 18.193C65.684 17.9447 66.1996 17.4291 66.5815 16.4362C66.6961 16.4362 67.1162 16.5889 67.1162 16.7035C66.6579 17.9256 65.7031 18.7658 64.7292 19.0523C64.0991 20.198 63.2398 21.0955 62.3423 21.0955C60.9292 21.0955 60.4327 19.8161 60.4327 17.8683C60.4327 16.6844 60.6237 15.2523 60.9101 13.7055C61.8076 8.77887 62.3423 5.76178 64.1564 5.76178C64.9393 5.76178 65.283 6.20098 65.283 6.88842C65.283 8.12963 64.1946 10.1919 62.5141 12.197ZM64.1182 15.1759C64.1182 14.1256 63.889 13.4764 63.3925 13.4764C62.5332 13.4764 61.9986 14.6412 61.9986 15.8442C61.9986 16.9518 62.476 18.1166 63.5644 18.3457C63.9081 17.4291 64.1182 16.2261 64.1182 15.1759ZM64.4046 7.42309C64.4046 7.36581 64.4237 7.30852 64.4237 7.27033C64.4237 7.09847 64.3473 7.00299 64.2518 7.00299C64.1182 7.00299 63.679 7.19395 62.8197 10.803C63.4307 9.90551 64.1564 8.6643 64.4046 7.42309ZM62.3805 19.6824C62.7051 19.6824 62.9915 19.4533 63.2398 19.0523C62.5332 18.8804 62.094 18.4221 61.8267 17.8301C61.8267 18.9377 61.9222 19.6824 62.3805 19.6824ZM68.5934 12.197L68.5361 12.5216L68.4597 12.8844C68.8607 12.4834 69.3572 12.2352 69.8919 12.2352C71.2668 12.2352 71.706 13.5909 71.706 15.5578C71.706 16.4171 71.4959 17.3528 71.1904 18.193C71.7632 17.9447 72.2788 17.4291 72.6607 16.4362C72.7753 16.4362 73.1954 16.5889 73.1954 16.7035C72.7371 17.9256 71.7823 18.7658 70.8085 19.0523C70.1783 20.198 69.319 21.0955 68.4215 21.0955C67.0085 21.0955 66.512 19.8161 66.512 17.8683C66.512 16.6844 66.7029 15.2523 66.9894 13.7055C67.8869 8.77887 68.4215 5.76178 70.2356 5.76178C71.0185 5.76178 71.3622 6.20098 71.3622 6.88842C71.3622 8.12963 70.2738 10.1919 68.5934 12.197ZM70.1974 15.1759C70.1974 14.1256 69.9683 13.4764 69.4718 13.4764C68.6125 13.4764 68.0778 14.6412 68.0778 15.8442C68.0778 16.9518 68.5552 18.1166 69.6436 18.3457C69.9874 17.4291 70.1974 16.2261 70.1974 15.1759ZM70.4838 7.42309C70.4838 7.36581 70.5029 7.30852 70.5029 7.27033C70.5029 7.09847 70.4266 7.00299 70.3311 7.00299C70.1974 7.00299 69.7582 7.19395 68.8989 10.803C69.51 9.90551 70.2356 8.6643 70.4838 7.42309ZM68.4597 19.6824C68.7843 19.6824 69.0708 19.4533 69.319 19.0523C68.6125 18.8804 68.1733 18.4221 67.9059 17.8301C67.9059 18.9377 68.0014 19.6824 68.4597 19.6824ZM74.8254 19.7397C75.4364 19.7397 76.1621 18.5558 76.9832 16.4362C77.0786 16.4362 77.4415 16.5889 77.4415 16.6844C77.4415 16.7035 77.4415 16.7035 77.4415 16.7035C76.3148 19.7588 75.4364 21.191 74.1952 21.191C73.0495 21.191 72.5912 20.0643 72.5912 18.0784C72.5912 16.6844 72.8204 14.8512 73.2023 12.6744C74.0616 7.88139 75.2646 5.72359 76.3721 5.72359C77.3651 5.72359 77.6515 6.52561 77.6515 7.49948C77.6515 8.62611 77.2696 9.98189 77.0786 10.5739C76.2957 13.0754 75.0163 14.9467 74.2525 15.8824C74.157 16.7035 74.0998 17.4482 74.0998 18.0593C74.0998 19.3387 74.3862 19.7397 74.8254 19.7397ZM76.8113 7.42309C76.8113 7.15576 76.7158 7.00299 76.6204 7.00299C76.1048 7.00299 74.9781 11.1276 74.4244 14.6794C75.3791 12.9417 76.7922 9.75275 76.8113 7.42309ZM79.5341 20.2553C81.7682 20.2553 82.7421 11.2422 88.4708 11.2422C91.4497 11.2422 92.8245 13.1327 92.8245 15.1377C92.8245 17.4673 90.9914 19.9688 87.6115 19.9688C85.8738 19.9688 84.6135 19.205 83.8306 18.2502L84.7471 17.3337C85.5491 18.403 86.3894 18.8231 87.6306 18.8231C90.1321 18.8231 91.3542 16.9708 91.3542 15.2332C91.3542 13.6673 90.3803 12.197 88.4708 12.197C83.6969 12.197 83.8878 21.191 79.1903 21.191C77.529 21.191 76.8416 19.6633 76.8416 17.8683C76.8416 15.2713 78.2738 12.1015 80.4125 12.1015C81.3672 12.1015 81.8446 12.7889 81.8446 13.6673C81.8446 15.0422 80.6798 16.8754 78.4074 17.2382C78.3692 17.5437 78.3501 17.8301 78.3501 18.0975C78.3501 19.3005 78.6748 20.2553 79.5341 20.2553ZM80.2597 13.2854C79.515 13.2854 78.8084 14.8512 78.5029 16.4935C79.9351 15.7869 80.5652 14.4693 80.5652 13.7628C80.5652 13.4764 80.4506 13.2854 80.2597 13.2854ZM106.542 4.15776L108.624 4.29143C108.433 5.15073 108.032 5.91455 107.497 6.58289C106.198 12.5216 105.626 17.9256 104.613 25.3347H102.742C103.754 18.6322 104.403 13.6864 105.549 8.39697C102.265 10.7648 97.6436 12.2161 97.6436 15.4623C97.6436 16.9136 98.5984 17.8492 99.8396 17.8492C100.928 17.8492 101.596 17.009 101.596 16.1497C101.596 15.5769 101.272 14.9658 100.584 14.6221L101.367 13.3236C102.761 13.9347 103.41 15.1186 103.41 16.3025C103.41 17.9447 102.15 19.5678 99.8587 19.5678C97.6436 19.5678 95.8677 17.9447 95.8677 15.806C95.8677 11.0703 102.265 9.61908 105.816 7.13666C106.046 6.16279 106.275 5.16982 106.542 4.15776ZM108.078 21H106.417C106.417 21 106.589 19.2623 107.123 17.8301C107.505 15.6724 107.83 13.7437 108.059 12.2924H109.701L109.491 13.5718C110.102 12.6553 110.866 12.0824 111.668 12.0824C112.336 12.0824 112.775 12.5216 112.775 13.4382C112.775 15.2141 111.534 17.4864 111.534 19.0523C111.534 19.606 111.744 19.7015 111.916 19.7015C112.413 19.7015 113.043 18.6322 113.883 16.4362C113.998 16.4362 114.418 16.5889 114.418 16.7035C113.577 18.8804 112.718 21.0955 111.152 21.0955C110.484 21.0955 109.854 20.5608 109.854 19.396C109.854 17.3337 111.095 15.2141 111.095 13.8392C111.095 13.6291 111 13.4573 110.79 13.4573C110.312 13.4573 109.472 14.3548 108.842 17.0472L108.078 21ZM137.17 4.44419L137.838 5.30349C137.513 5.83817 137.074 6.25827 136.349 6.52561C135.948 7.65224 135.432 9.81003 134.974 14.202C134 23.4251 130.524 25.5256 127.469 25.5256C124.357 25.5256 123.058 23.7307 123.058 21.9739C123.058 20.3126 124.204 18.6894 126.056 18.6703L126.113 20.408C125.273 20.408 124.739 21.2482 124.739 22.1648C124.739 23.2724 125.521 24.4945 127.526 24.4945C129.627 24.4945 132.052 23.1769 133.045 14.202C133.446 10.4975 134.114 8.20601 134.802 6.79294H134.382C131.575 6.79294 128.71 5.62812 124.758 5.62812C121.091 5.62812 119.239 8.54973 119.239 11.204C119.239 13.4191 120.518 15.4623 123.134 15.4623C125.77 15.4623 126.705 13.5528 126.705 11.3759C126.705 11.0321 126.686 10.6884 126.648 10.3256L128.367 10.0201C128.405 10.402 128.443 10.7839 128.443 11.1658C128.443 13.9538 127.106 16.4171 123.154 16.4171C119.296 16.4171 117.406 13.7819 117.406 10.9558C117.406 7.70953 119.926 4.19595 124.815 4.19595C128.94 4.19595 132.224 5.74269 134.611 5.74269C134.936 5.74269 135.203 5.72359 135.451 5.7045C136.119 4.80701 136.75 4.53967 137.17 4.44419ZM137.211 12.2924H138.834C138.165 15.2713 137.612 17.4864 137.612 19.0523C137.612 19.606 137.822 19.7015 137.993 19.7015C138.49 19.7015 139.12 18.6322 139.96 16.4362C140.056 16.4362 140.495 16.5698 140.495 16.6844V16.7035C139.655 18.8804 138.986 21.0955 137.421 21.0955C136.389 21.0955 136.046 20.1407 136.046 18.8231C136.046 16.7035 136.886 13.6673 137.211 12.2924ZM138.337 11.1849C137.726 11.1849 137.44 10.7266 137.44 10.211C137.44 9.5236 137.936 8.70249 138.776 8.70249C139.407 8.70249 139.674 9.16079 139.674 9.69546C139.674 10.3829 139.177 11.1849 138.337 11.1849ZM140.675 21H139.013C139.013 21 139.185 19.2623 139.72 17.8301C140.102 15.6724 140.426 13.7437 140.656 12.2924H142.298L142.049 13.7246C142.622 12.7507 143.329 12.0824 144.112 12.0824C144.857 12.0824 145.162 12.6744 145.162 13.4C145.162 13.5337 145.143 13.7055 145.124 13.8774C145.792 12.7698 146.613 12.0824 147.511 12.0824C148.179 12.0824 148.618 12.5216 148.618 13.4382C148.618 15.2141 147.377 17.4864 147.377 19.0523C147.377 19.606 147.587 19.7015 147.759 19.7015C148.256 19.7015 148.886 18.6322 149.726 16.4362C149.84 16.4362 150.261 16.5889 150.261 16.7035C149.42 18.8804 148.561 21.0955 146.995 21.0955C146.327 21.0955 145.697 20.5608 145.697 19.396C145.697 17.3337 146.938 15.2141 146.938 13.8392C146.938 13.6291 146.842 13.4573 146.632 13.4573C146.155 13.4573 145.296 14.3739 144.646 17.1809C144.36 18.7276 144.035 20.2935 143.864 21H142.126C142.584 18.8995 143.463 14.8131 143.463 13.9919C143.463 13.6864 143.367 13.5909 143.214 13.5909C142.603 13.5909 141.801 15.0804 141.286 17.8111L140.675 21ZM152.28 20.2553C154.514 20.2553 155.488 11.2422 161.216 11.2422C164.195 11.2422 165.57 13.1327 165.57 15.1377C165.57 17.4673 163.737 19.9688 160.357 19.9688C158.619 19.9688 157.359 19.205 156.576 18.2502L157.493 17.3337C158.295 18.403 159.135 18.8231 160.376 18.8231C162.878 18.8231 164.1 16.9708 164.1 15.2332C164.1 13.6673 163.126 12.197 161.216 12.197C156.443 12.197 156.634 21.191 151.936 21.191C150.275 21.191 149.587 19.6633 149.587 17.8683C149.587 15.2713 151.019 12.1015 153.158 12.1015C154.113 12.1015 154.59 12.7889 154.59 13.6673C154.59 15.0422 153.425 16.8754 151.153 17.2382C151.115 17.5437 151.096 17.8301 151.096 18.0975C151.096 19.3005 151.42 20.2553 152.28 20.2553ZM153.005 13.2854C152.261 13.2854 151.554 14.8512 151.249 16.4935C152.681 15.7869 153.311 14.4693 153.311 13.7628C153.311 13.4764 153.196 13.2854 153.005 13.2854Z" fill="#FBFFFE"/>
</svg>
