<svg width="19" height="18" viewBox="0 0 19 18" fill="none" xmlns="http://www.w3.org/2000/svg">
<path d="M9.50265 1.86042C11.8281 1.86042 12.1035 1.86913 13.0222 1.91102C13.5745 1.91777 14.1216 2.0192 14.6397 2.21088C15.0154 2.35577 15.3566 2.57772 15.6413 2.86244C15.926 3.14717 16.148 3.48836 16.2929 3.86406C16.4846 4.38212 16.586 4.92922 16.5927 5.48157C16.6342 6.40023 16.6433 6.67562 16.6433 9.00111C16.6433 11.3266 16.6346 11.602 16.5927 12.5206C16.586 13.073 16.4846 13.6201 16.2929 14.1382C16.148 14.5139 15.926 14.855 15.6413 15.1398C15.3566 15.4245 15.0154 15.6464 14.6397 15.7913C14.1216 15.983 13.5745 16.0844 13.0222 16.0912C12.1039 16.1327 11.8285 16.1418 9.50265 16.1418C7.17675 16.1418 6.90136 16.1331 5.98311 16.0912C5.43076 16.0844 4.88366 15.983 4.3656 15.7913C3.9899 15.6464 3.64871 15.4245 3.36398 15.1398C3.07926 14.855 2.8573 14.5139 2.71242 14.1382C2.52074 13.6201 2.41931 13.073 2.41255 12.5206C2.37108 11.602 2.36195 11.3266 2.36195 9.00111C2.36195 6.67562 2.37066 6.40023 2.41255 5.48157C2.41931 4.92922 2.52074 4.38212 2.71242 3.86406C2.8573 3.48836 3.07926 3.14717 3.36398 2.86244C3.64871 2.57772 3.9899 2.35577 4.3656 2.21088C4.88366 2.0192 5.43076 1.91777 5.98311 1.91102C6.90177 1.86954 7.17716 1.86042 9.50265 1.86042ZM9.50265 0.291016C7.13859 0.291016 6.8408 0.30097 5.91177 0.343274C5.18889 0.357652 4.47368 0.494524 3.79656 0.748066C3.21571 0.966914 2.6896 1.30987 2.25495 1.753C1.81142 2.18781 1.46817 2.71421 1.24919 3.29544C0.995647 3.97255 0.858776 4.68776 0.844397 5.41065C0.802923 6.33885 0.792969 6.63664 0.792969 9.00069C0.792969 11.3647 0.802923 11.6625 0.845227 12.5916C0.859605 13.3145 0.996477 14.0297 1.25002 14.7068C1.46876 15.2879 1.81172 15.8143 2.25495 16.2492C2.68984 16.6924 3.21624 17.0354 3.79739 17.2541C4.47451 17.5077 5.18972 17.6446 5.9126 17.6589C6.84163 17.7004 7.13818 17.7112 9.50348 17.7112C11.8688 17.7112 12.1653 17.7012 13.0944 17.6589C13.8172 17.6446 14.5324 17.5077 15.2096 17.2541C15.788 17.0299 16.3132 16.6875 16.7517 16.2487C17.1902 15.8099 17.5323 15.2845 17.7561 14.7059C18.0096 14.0288 18.1465 13.3136 18.1609 12.5907C18.2024 11.6625 18.2123 11.3647 18.2123 9.00069C18.2123 6.63664 18.2024 6.33885 18.1601 5.40982C18.1457 4.68693 18.0088 3.97172 17.7553 3.29461C17.5365 2.71346 17.1936 2.18706 16.7503 1.75217C16.3154 1.30894 15.7891 0.965977 15.2079 0.747237C14.5308 0.493694 13.8156 0.356823 13.0927 0.342444C12.1645 0.30097 11.8667 0.291016 9.50265 0.291016Z" fill="white"/>
<path d="M9.50388 4.53125C8.61928 4.53125 7.75454 4.79357 7.01902 5.28502C6.2835 5.77648 5.71023 6.47501 5.37171 7.29228C5.03319 8.10954 4.94461 9.00884 5.11719 9.87644C5.28977 10.744 5.71575 11.541 6.34125 12.1665C6.96676 12.792 7.76371 13.218 8.63131 13.3906C9.49892 13.5631 10.3982 13.4746 11.2155 13.136C12.0327 12.7975 12.7313 12.2243 13.2227 11.4887C13.7142 10.7532 13.9765 9.88848 13.9765 9.00388C13.9765 7.81766 13.5053 6.68003 12.6665 5.84125C11.8277 5.00247 10.6901 4.53125 9.50388 4.53125ZM9.50388 11.9071C8.92968 11.9071 8.36837 11.7368 7.89093 11.4178C7.4135 11.0988 7.04139 10.6454 6.82165 10.1149C6.60191 9.5844 6.54442 9.00066 6.65644 8.43749C6.76846 7.87431 7.04497 7.35701 7.45099 6.95099C7.85701 6.54496 8.37432 6.26846 8.93749 6.15644C9.50066 6.04441 10.0844 6.10191 10.6149 6.32165C11.1454 6.54138 11.5988 6.9135 11.9178 7.39093C12.2368 7.86836 12.4071 8.42967 12.4071 9.00388C12.4071 9.77386 12.1012 10.5123 11.5568 11.0568C11.0123 11.6012 10.2739 11.9071 9.50388 11.9071Z" fill="white"/>
<path d="M14.1506 5.39501C14.7279 5.39501 15.1958 4.92708 15.1958 4.34985C15.1958 3.77262 14.7279 3.30469 14.1506 3.30469C13.5734 3.30469 13.1055 3.77262 13.1055 4.34985C13.1055 4.92708 13.5734 5.39501 14.1506 5.39501Z" fill="white"/>
</svg>
